<svg width="680" height="160" viewBox="0 0 680 160" fill="none" xmlns="http://www.w3.org/2000/svg">
  <defs>
    <linearGradient id="icon-bg" x1="22" y1="10" x2="118" y2="126" gradientUnits="userSpaceOnUse">
      <stop stop-color="#171C2F"/>
      <stop offset="1" stop-color="#0C1220"/>
    </linearGradient>
    <linearGradient id="icon-accent" x1="40" y1="38" x2="108" y2="102" gradientUnits="userSpaceOnUse">
      <stop stop-color="#F6F1EA"/>
      <stop offset="0.55" stop-color="#C4B5FD"/>
      <stop offset="1" stop-color="#8B5CF6"/>
    </linearGradient>
  </defs>
  <rect width="680" height="160" rx="28" fill="#F6F1EA"/>
  <rect x="20" y="20" width="120" height="120" rx="32" fill="url(#icon-bg)"/>
  <rect x="28" y="28" width="104" height="104" rx="24" fill="rgba(255, 255, 255, 0.05)" stroke="rgba(255, 255, 255, 0.10)" stroke-width="1.5"/>
  <path d="M106 50A30 30 0 1 0 106 110" stroke="url(#icon-accent)" stroke-width="14" stroke-linecap="round"/>
  <path d="M78 80H110" stroke="url(#icon-accent)" stroke-width="14" stroke-linecap="round"/>
  <circle cx="78" cy="80" r="7" fill="#F6F1EA"/>
  <path d="M104 34L108 44L118 48L108 52L104 62L100 52L90 48L100 44L104 34Z" fill="#DDD6FE"/>
  <text x="176" y="82" fill="#131A2E" font-family="Georgia, 'Times New Roman', serif" font-size="56" font-weight="700" letter-spacing="-1">Galeria</text>
  <text x="176" y="116" fill="#6D28D9" font-family="Inter, Arial, sans-serif" font-size="20" font-weight="500">Capture moments, together</text>
</svg>
