<svg width="244" height="56" viewBox="0 0 244 56" fill="none" xmlns="http://www.w3.org/2000/svg">
  <defs>
    <linearGradient id="galeria-mark-gradient-light" x1="8" y1="8" x2="48" y2="48" gradientUnits="userSpaceOnUse">
      <stop offset="0" stop-color="#10B981" />
      <stop offset="1" stop-color="#06B6D4" />
    </linearGradient>
  </defs>
  <rect x="4" y="4" width="48" height="48" rx="16" fill="url(#galeria-mark-gradient-light)" />
  <circle cx="28" cy="28" r="12" fill="white" fill-opacity="0.18" />
  <path d="M35.5 24.5C34.1 20.6 30.5 18 26.2 18C20.6 18 16 22.6 16 28.2C16 33.8 20.6 38.4 26.2 38.4C30.6 38.4 34.4 35.5 35.6 31.3H29.7C28.9 32.6 27.6 33.4 26.1 33.4C23.2 33.4 20.9 31 20.9 28.2C20.9 25.3 23.3 23 26.1 23C27.8 23 29.4 23.8 30.3 25.2H25.4V29.9H40V28.1C40 26.8 39.7 25.6 39.3 24.5H35.5Z" fill="white" />
  <text x="68" y="37" fill="white" font-family="Segoe UI, Arial, sans-serif" font-size="28" font-weight="800" letter-spacing="-0.04em">Galeria</text>
</svg>
